<mxfile host="app.diagrams.net" modified="2021-01-11T11:35:52.260Z" agent="5.0 (Windows NT 10.0; Win64; x64) AppleWebKit/537.36 (KHTML, like Gecko) Chrome/78.0.3904.70 Safari/537.36" etag="B_qffmyczXJfnALqZMdl" version="14.1.8" type="github">
  <diagram id="VGhgGj3bnyzTKq_1j74Z" name="第 1 页">
    <mxGraphModel dx="1422" dy="794" grid="1" gridSize="10" guides="1" tooltips="1" connect="1" arrows="1" fold="1" page="1" pageScale="1" pageWidth="827" pageHeight="1169" background="#DAD2D8" math="0" shadow="0">
      <root>
        <mxCell id="0" />
        <mxCell id="1" parent="0" />
        <mxCell id="Jj7RIz-DyXmoQUk0c_gc-1" value="" style="rounded=0;whiteSpace=wrap;html=1;fillColor=#FAE5C7;strokeColor=#0F8B8D;fontColor=#143642;" vertex="1" parent="1">
          <mxGeometry x="40" y="40" width="840" height="700" as="geometry" />
        </mxCell>
        <mxCell id="Jj7RIz-DyXmoQUk0c_gc-2" value="" style="rounded=0;whiteSpace=wrap;html=1;dashed=1;fillColor=#d5e8d4;strokeColor=#82b366;" vertex="1" parent="1">
          <mxGeometry x="60" y="90" width="800" height="80" as="geometry" />
        </mxCell>
        <mxCell id="Jj7RIz-DyXmoQUk0c_gc-3" value="" style="rounded=0;whiteSpace=wrap;html=1;dashed=1;fillColor=#ffe6cc;strokeColor=#d79b00;" vertex="1" parent="1">
          <mxGeometry x="60" y="220" width="800" height="500" as="geometry" />
        </mxCell>
        <mxCell id="Jj7RIz-DyXmoQUk0c_gc-5" value="API服务" style="text;html=1;fillColor=#d5e8d4;align=center;verticalAlign=middle;whiteSpace=wrap;rounded=0;dashed=1;fontStyle=1" vertex="1" parent="1">
          <mxGeometry x="70" y="96" width="60" height="20" as="geometry" />
        </mxCell>
        <mxCell id="Jj7RIz-DyXmoQUk0c_gc-6" value="中心网关" style="text;html=1;strokeColor=none;fillColor=none;align=center;verticalAlign=middle;whiteSpace=wrap;rounded=0;dashed=1;fontStyle=1;fontSize=14;fontColor=#143642;" vertex="1" parent="1">
          <mxGeometry x="65" y="230" width="80" height="20" as="geometry" />
        </mxCell>
        <mxCell id="Jj7RIz-DyXmoQUk0c_gc-7" value="API服务 A" style="rounded=0;whiteSpace=wrap;html=1;fillColor=#d5e8d4;strokeColor=#82b366;" vertex="1" parent="1">
          <mxGeometry x="164" y="116" width="106" height="38" as="geometry" />
        </mxCell>
        <mxCell id="Jj7RIz-DyXmoQUk0c_gc-11" value="中心网关架构图" style="text;html=1;strokeColor=none;fillColor=none;align=center;verticalAlign=middle;whiteSpace=wrap;rounded=0;dashed=1;fontStyle=1;fontSize=14;fontColor=#143642;" vertex="1" parent="1">
          <mxGeometry x="40" y="50" width="130" height="20" as="geometry" />
        </mxCell>
        <mxCell id="Jj7RIz-DyXmoQUk0c_gc-12" value="" style="rounded=0;whiteSpace=wrap;html=1;dashed=1;fontSize=14;fillColor=#e1d5e7;strokeColor=#9673a6;" vertex="1" parent="1">
          <mxGeometry x="80" y="260" width="320" height="440" as="geometry" />
        </mxCell>
        <mxCell id="Jj7RIz-DyXmoQUk0c_gc-13" value="负载均衡（SLB）" style="rounded=0;whiteSpace=wrap;html=1;fontSize=14;fontStyle=1;fillColor=#FAE5C7;strokeColor=#0F8B8D;fontColor=#143642;" vertex="1" parent="1">
          <mxGeometry x="100" y="311" width="280" height="50" as="geometry" />
        </mxCell>
        <mxCell id="Jj7RIz-DyXmoQUk0c_gc-14" value="" style="rounded=0;whiteSpace=wrap;html=1;fontSize=14;fillColor=#FAE5C7;strokeColor=#0F8B8D;fontColor=#143642;" vertex="1" parent="1">
          <mxGeometry x="100" y="419" width="280" height="102" as="geometry" />
        </mxCell>
        <mxCell id="Jj7RIz-DyXmoQUk0c_gc-15" value="" style="rounded=0;whiteSpace=wrap;html=1;fontSize=14;fillColor=#FAE5C7;strokeColor=#0F8B8D;fontColor=#143642;" vertex="1" parent="1">
          <mxGeometry x="100" y="581" width="280" height="95" as="geometry" />
        </mxCell>
        <mxCell id="Jj7RIz-DyXmoQUk0c_gc-16" value="中台服务/公共服务" style="text;html=1;strokeColor=none;fillColor=none;align=center;verticalAlign=middle;whiteSpace=wrap;rounded=0;dashed=1;fontSize=14;fontStyle=1;fontColor=#143642;" vertex="1" parent="1">
          <mxGeometry x="100" y="429" width="135" height="20" as="geometry" />
        </mxCell>
        <mxCell id="Jj7RIz-DyXmoQUk0c_gc-17" value="A 服务" style="rounded=0;whiteSpace=wrap;html=1;fillColor=#FAE5C7;strokeColor=#0F8B8D;fontColor=#143642;" vertex="1" parent="1">
          <mxGeometry x="120" y="469" width="80" height="32" as="geometry" />
        </mxCell>
        <mxCell id="Jj7RIz-DyXmoQUk0c_gc-18" value="&lt;span&gt;B 服务&lt;/span&gt;" style="rounded=0;whiteSpace=wrap;html=1;fillColor=#FAE5C7;strokeColor=#0F8B8D;fontColor=#143642;" vertex="1" parent="1">
          <mxGeometry x="280" y="469" width="80" height="32" as="geometry" />
        </mxCell>
        <mxCell id="Jj7RIz-DyXmoQUk0c_gc-19" value="Zookeeper" style="rounded=0;whiteSpace=wrap;html=1;fillColor=#FAE5C7;strokeColor=#0F8B8D;fontColor=#143642;" vertex="1" parent="1">
          <mxGeometry x="120" y="626" width="100" height="32" as="geometry" />
        </mxCell>
        <mxCell id="Jj7RIz-DyXmoQUk0c_gc-20" value="Consul" style="rounded=0;whiteSpace=wrap;html=1;fillColor=#FAE5C7;strokeColor=#0F8B8D;fontColor=#143642;" vertex="1" parent="1">
          <mxGeometry x="260" y="626" width="100" height="32" as="geometry" />
        </mxCell>
        <mxCell id="Jj7RIz-DyXmoQUk0c_gc-21" value="服务注册中心" style="text;html=1;strokeColor=none;fillColor=none;align=center;verticalAlign=middle;whiteSpace=wrap;rounded=0;fontSize=14;fontStyle=1;fontColor=#143642;" vertex="1" parent="1">
          <mxGeometry x="110" y="591" width="95" height="20" as="geometry" />
        </mxCell>
        <mxCell id="Jj7RIz-DyXmoQUk0c_gc-22" value="" style="shape=flexArrow;endArrow=classic;startArrow=classic;html=1;fontSize=14;exitX=0.5;exitY=0;exitDx=0;exitDy=0;strokeColor=#A8201A;fontColor=#143642;labelBackgroundColor=#DAD2D8;" edge="1" parent="1" source="Jj7RIz-DyXmoQUk0c_gc-15">
          <mxGeometry width="50" height="50" relative="1" as="geometry">
            <mxPoint x="240" y="581" as="sourcePoint" />
            <mxPoint x="239.5" y="521" as="targetPoint" />
          </mxGeometry>
        </mxCell>
        <mxCell id="Jj7RIz-DyXmoQUk0c_gc-23" value="" style="shape=flexArrow;endArrow=classic;startArrow=classic;html=1;fontSize=14;exitX=0.5;exitY=0;exitDx=0;exitDy=0;strokeColor=#A8201A;fontColor=#143642;labelBackgroundColor=#DAD2D8;" edge="1" parent="1" source="Jj7RIz-DyXmoQUk0c_gc-14">
          <mxGeometry width="50" height="50" relative="1" as="geometry">
            <mxPoint x="239.5" y="411" as="sourcePoint" />
            <mxPoint x="239.5" y="361" as="targetPoint" />
          </mxGeometry>
        </mxCell>
        <mxCell id="Jj7RIz-DyXmoQUk0c_gc-25" value="BU - A" style="text;html=1;strokeColor=none;fillColor=none;align=center;verticalAlign=middle;whiteSpace=wrap;rounded=0;fontSize=14;fontStyle=1;fontColor=#143642;" vertex="1" parent="1">
          <mxGeometry x="93" y="270" width="60" height="20" as="geometry" />
        </mxCell>
        <mxCell id="Jj7RIz-DyXmoQUk0c_gc-27" value="" style="endArrow=classic;startArrow=classic;html=1;fontSize=14;entryX=0;entryY=0.5;entryDx=0;entryDy=0;strokeColor=#A8201A;fontColor=#143642;labelBackgroundColor=#DAD2D8;" edge="1" parent="1" target="Jj7RIz-DyXmoQUk0c_gc-18">
          <mxGeometry width="50" height="50" relative="1" as="geometry">
            <mxPoint x="200" y="484.5" as="sourcePoint" />
            <mxPoint x="250" y="484.5" as="targetPoint" />
          </mxGeometry>
        </mxCell>
        <mxCell id="Jj7RIz-DyXmoQUk0c_gc-28" value="HTTP/RPC" style="edgeLabel;html=1;align=center;verticalAlign=middle;resizable=0;points=[];fontSize=14;fontColor=#143642;labelBackgroundColor=#DAD2D8;" vertex="1" connectable="0" parent="Jj7RIz-DyXmoQUk0c_gc-27">
          <mxGeometry x="0.4253" y="-2" relative="1" as="geometry">
            <mxPoint x="-16.99" y="14.14" as="offset" />
          </mxGeometry>
        </mxCell>
        <mxCell id="Jj7RIz-DyXmoQUk0c_gc-29" style="edgeStyle=orthogonalEdgeStyle;rounded=0;orthogonalLoop=1;jettySize=auto;html=1;exitX=0.5;exitY=1;exitDx=0;exitDy=0;fontSize=14;curved=1;strokeColor=#A8201A;fontColor=#143642;labelBackgroundColor=#DAD2D8;" edge="1" parent="1" source="Jj7RIz-DyXmoQUk0c_gc-7" target="Jj7RIz-DyXmoQUk0c_gc-13">
          <mxGeometry relative="1" as="geometry" />
        </mxCell>
        <mxCell id="Jj7RIz-DyXmoQUk0c_gc-54" value="HTTP" style="edgeLabel;html=1;align=center;verticalAlign=middle;resizable=0;points=[];fontSize=14;fontColor=#143642;labelBackgroundColor=#DAD2D8;" vertex="1" connectable="0" parent="Jj7RIz-DyXmoQUk0c_gc-29">
          <mxGeometry x="-0.3333" y="3" relative="1" as="geometry">
            <mxPoint x="-3" y="-14" as="offset" />
          </mxGeometry>
        </mxCell>
        <mxCell id="Jj7RIz-DyXmoQUk0c_gc-30" value="" style="rounded=0;whiteSpace=wrap;html=1;dashed=1;fontSize=14;fillColor=#e1d5e7;strokeColor=#9673a6;" vertex="1" parent="1">
          <mxGeometry x="520" y="260" width="320" height="440" as="geometry" />
        </mxCell>
        <mxCell id="Jj7RIz-DyXmoQUk0c_gc-31" value="负载均衡（SLB）" style="rounded=0;whiteSpace=wrap;html=1;fontSize=14;fontStyle=1;fillColor=#FAE5C7;strokeColor=#0F8B8D;fontColor=#143642;" vertex="1" parent="1">
          <mxGeometry x="540" y="311" width="280" height="50" as="geometry" />
        </mxCell>
        <mxCell id="Jj7RIz-DyXmoQUk0c_gc-32" value="" style="rounded=0;whiteSpace=wrap;html=1;fontSize=14;fillColor=#FAE5C7;strokeColor=#0F8B8D;fontColor=#143642;" vertex="1" parent="1">
          <mxGeometry x="540" y="419" width="280" height="102" as="geometry" />
        </mxCell>
        <mxCell id="Jj7RIz-DyXmoQUk0c_gc-33" value="" style="rounded=0;whiteSpace=wrap;html=1;fontSize=14;fillColor=#FAE5C7;strokeColor=#0F8B8D;fontColor=#143642;" vertex="1" parent="1">
          <mxGeometry x="540" y="581" width="280" height="95" as="geometry" />
        </mxCell>
        <mxCell id="Jj7RIz-DyXmoQUk0c_gc-34" value="中台服务/公共服务" style="text;html=1;strokeColor=none;fillColor=none;align=center;verticalAlign=middle;whiteSpace=wrap;rounded=0;dashed=1;fontSize=14;fontStyle=1;fontColor=#143642;" vertex="1" parent="1">
          <mxGeometry x="540" y="429" width="135" height="20" as="geometry" />
        </mxCell>
        <mxCell id="Jj7RIz-DyXmoQUk0c_gc-35" value="C 服务" style="rounded=0;whiteSpace=wrap;html=1;fillColor=#FAE5C7;strokeColor=#0F8B8D;fontColor=#143642;" vertex="1" parent="1">
          <mxGeometry x="560" y="469" width="80" height="32" as="geometry" />
        </mxCell>
        <mxCell id="Jj7RIz-DyXmoQUk0c_gc-36" value="&lt;span&gt;D 服务&lt;/span&gt;" style="rounded=0;whiteSpace=wrap;html=1;fillColor=#FAE5C7;strokeColor=#0F8B8D;fontColor=#143642;" vertex="1" parent="1">
          <mxGeometry x="720" y="469" width="80" height="32" as="geometry" />
        </mxCell>
        <mxCell id="Jj7RIz-DyXmoQUk0c_gc-37" value="Zookeeper" style="rounded=0;whiteSpace=wrap;html=1;fillColor=#FAE5C7;strokeColor=#0F8B8D;fontColor=#143642;" vertex="1" parent="1">
          <mxGeometry x="560" y="626" width="100" height="32" as="geometry" />
        </mxCell>
        <mxCell id="Jj7RIz-DyXmoQUk0c_gc-38" value="Consul" style="rounded=0;whiteSpace=wrap;html=1;fillColor=#FAE5C7;strokeColor=#0F8B8D;fontColor=#143642;" vertex="1" parent="1">
          <mxGeometry x="700" y="626" width="100" height="32" as="geometry" />
        </mxCell>
        <mxCell id="Jj7RIz-DyXmoQUk0c_gc-39" value="服务注册中心" style="text;html=1;strokeColor=none;fillColor=none;align=center;verticalAlign=middle;whiteSpace=wrap;rounded=0;fontSize=14;fontStyle=1;fontColor=#143642;" vertex="1" parent="1">
          <mxGeometry x="550" y="591" width="95" height="20" as="geometry" />
        </mxCell>
        <mxCell id="Jj7RIz-DyXmoQUk0c_gc-40" value="" style="shape=flexArrow;endArrow=classic;startArrow=classic;html=1;fontSize=14;exitX=0.5;exitY=0;exitDx=0;exitDy=0;strokeColor=#A8201A;fontColor=#143642;labelBackgroundColor=#DAD2D8;" edge="1" parent="1" source="Jj7RIz-DyXmoQUk0c_gc-33">
          <mxGeometry width="50" height="50" relative="1" as="geometry">
            <mxPoint x="680" y="581" as="sourcePoint" />
            <mxPoint x="679.5" y="521" as="targetPoint" />
          </mxGeometry>
        </mxCell>
        <mxCell id="Jj7RIz-DyXmoQUk0c_gc-41" value="" style="shape=flexArrow;endArrow=classic;startArrow=classic;html=1;fontSize=14;exitX=0.5;exitY=0;exitDx=0;exitDy=0;strokeColor=#A8201A;fontColor=#143642;labelBackgroundColor=#DAD2D8;" edge="1" parent="1" source="Jj7RIz-DyXmoQUk0c_gc-32">
          <mxGeometry width="50" height="50" relative="1" as="geometry">
            <mxPoint x="679.5" y="411" as="sourcePoint" />
            <mxPoint x="679.5" y="361" as="targetPoint" />
          </mxGeometry>
        </mxCell>
        <mxCell id="Jj7RIz-DyXmoQUk0c_gc-42" value="BU - B" style="text;html=1;strokeColor=none;fillColor=none;align=center;verticalAlign=middle;whiteSpace=wrap;rounded=0;fontSize=14;fontStyle=1;fontColor=#143642;" vertex="1" parent="1">
          <mxGeometry x="533" y="270" width="60" height="20" as="geometry" />
        </mxCell>
        <mxCell id="Jj7RIz-DyXmoQUk0c_gc-43" value="" style="endArrow=classic;startArrow=classic;html=1;fontSize=14;entryX=0;entryY=0.5;entryDx=0;entryDy=0;strokeColor=#A8201A;fontColor=#143642;labelBackgroundColor=#DAD2D8;" edge="1" parent="1" target="Jj7RIz-DyXmoQUk0c_gc-36">
          <mxGeometry width="50" height="50" relative="1" as="geometry">
            <mxPoint x="640" y="484.5" as="sourcePoint" />
            <mxPoint x="690" y="484.5" as="targetPoint" />
          </mxGeometry>
        </mxCell>
        <mxCell id="Jj7RIz-DyXmoQUk0c_gc-44" value="HTTP/RPC" style="edgeLabel;html=1;align=center;verticalAlign=middle;resizable=0;points=[];fontSize=14;fontColor=#143642;labelBackgroundColor=#DAD2D8;" vertex="1" connectable="0" parent="Jj7RIz-DyXmoQUk0c_gc-43">
          <mxGeometry x="0.4253" y="-2" relative="1" as="geometry">
            <mxPoint x="-16.99" y="14.14" as="offset" />
          </mxGeometry>
        </mxCell>
        <mxCell id="Jj7RIz-DyXmoQUk0c_gc-46" style="edgeStyle=orthogonalEdgeStyle;curved=1;rounded=0;orthogonalLoop=1;jettySize=auto;html=1;fontSize=14;strokeColor=#A8201A;fontColor=#143642;labelBackgroundColor=#DAD2D8;" edge="1" parent="1" source="Jj7RIz-DyXmoQUk0c_gc-7" target="Jj7RIz-DyXmoQUk0c_gc-31">
          <mxGeometry relative="1" as="geometry">
            <Array as="points">
              <mxPoint x="225" y="200" />
              <mxPoint x="680" y="200" />
            </Array>
          </mxGeometry>
        </mxCell>
        <mxCell id="Jj7RIz-DyXmoQUk0c_gc-53" value="HTTP" style="edgeLabel;html=1;align=center;verticalAlign=middle;resizable=0;points=[];fontSize=14;fontColor=#143642;labelBackgroundColor=#DAD2D8;" vertex="1" connectable="0" parent="Jj7RIz-DyXmoQUk0c_gc-46">
          <mxGeometry x="-0.6405" y="12" relative="1" as="geometry">
            <mxPoint as="offset" />
          </mxGeometry>
        </mxCell>
        <mxCell id="Jj7RIz-DyXmoQUk0c_gc-49" style="edgeStyle=orthogonalEdgeStyle;curved=1;rounded=0;orthogonalLoop=1;jettySize=auto;html=1;fontSize=14;strokeColor=#A8201A;fontColor=#143642;labelBackgroundColor=#DAD2D8;" edge="1" parent="1" source="Jj7RIz-DyXmoQUk0c_gc-47" target="Jj7RIz-DyXmoQUk0c_gc-31">
          <mxGeometry relative="1" as="geometry" />
        </mxCell>
        <mxCell id="Jj7RIz-DyXmoQUk0c_gc-51" value="HTTP" style="edgeLabel;html=1;align=center;verticalAlign=middle;resizable=0;points=[];fontSize=14;fontColor=#143642;labelBackgroundColor=#DAD2D8;" vertex="1" connectable="0" parent="Jj7RIz-DyXmoQUk0c_gc-49">
          <mxGeometry x="-0.4505" y="-2" relative="1" as="geometry">
            <mxPoint as="offset" />
          </mxGeometry>
        </mxCell>
        <mxCell id="Jj7RIz-DyXmoQUk0c_gc-50" style="edgeStyle=orthogonalEdgeStyle;curved=1;rounded=0;orthogonalLoop=1;jettySize=auto;html=1;fontSize=14;strokeColor=#A8201A;fontColor=#143642;labelBackgroundColor=#DAD2D8;" edge="1" parent="1" source="Jj7RIz-DyXmoQUk0c_gc-47" target="Jj7RIz-DyXmoQUk0c_gc-13">
          <mxGeometry relative="1" as="geometry">
            <Array as="points">
              <mxPoint x="655" y="200" />
              <mxPoint x="240" y="200" />
            </Array>
          </mxGeometry>
        </mxCell>
        <mxCell id="Jj7RIz-DyXmoQUk0c_gc-52" value="HTTP" style="edgeLabel;html=1;align=center;verticalAlign=middle;resizable=0;points=[];fontSize=14;fontColor=#143642;labelBackgroundColor=#DAD2D8;" vertex="1" connectable="0" parent="Jj7RIz-DyXmoQUk0c_gc-50">
          <mxGeometry x="-0.6743" y="-13" relative="1" as="geometry">
            <mxPoint as="offset" />
          </mxGeometry>
        </mxCell>
        <mxCell id="Jj7RIz-DyXmoQUk0c_gc-47" value="&lt;span&gt;API服务 B&lt;/span&gt;" style="rounded=0;whiteSpace=wrap;html=1;fillColor=#d5e8d4;strokeColor=#82b366;" vertex="1" parent="1">
          <mxGeometry x="651" y="115" width="106" height="38" as="geometry" />
        </mxCell>
      </root>
    </mxGraphModel>
  </diagram>
</mxfile>
